<?xml version="1.0" encoding="UTF-8"?>
<svg width="144px" height="24px" viewBox="0 0 205 44" version="1.1" xmlns="http://www.w3.org/2000/svg" xmlns:xlink="http://www.w3.org/1999/xlink">
    <!-- Generator: Sketch 61 (89581) - https://sketch.com -->
    <title>Combined Shape</title>
    <desc>Created with Sketch.</desc>
    <g id="Exploration" stroke="none" stroke-width="1" fill="none" fill-rule="evenodd">
        <g id="Artboard" transform="translate(-618.000000, -599.000000)" fill="#171C26">
            <g id="Group" transform="translate(618.000000, 599.982960)">
                <path d="M121.306076,0.00117333333 C121.317737,0.00117333333 121.326482,0.00997333333 121.326482,0.0217066667 L121.326482,0.0217066667 L121.326482,42.6665067 L106.806157,42.6665067 C98.8011759,42.6665067 92.2858324,36.1105067 92.2858324,28.0555733 C92.2858324,19.9977067 98.8011759,13.44464 106.806157,13.44464 C110.015729,13.44464 113.062053,14.48304 115.612803,16.4483733 C115.615718,16.4483733 115.621548,16.4513067 115.624463,16.45424 C115.636124,16.4659733 115.653615,16.47184 115.671106,16.47184 C115.714833,16.47184 115.746899,16.43664 115.746899,16.3955733 L115.746899,16.3955733 L115.746899,0.0217066667 C115.746899,0.00997333333 115.755645,0.00117333333 115.767305,0.00117333333 L115.767305,0.00117333333 Z M47.5929081,13.4440533 C53.1724908,13.4440533 57.7142828,18.0141867 57.7142828,23.6285867 C57.7142828,23.64032 57.7055374,23.64912 57.6938768,23.64912 L57.6938768,23.64912 L52.1551061,23.64912 C52.1434455,23.64912 52.1347001,23.64032 52.1347001,23.6285867 C52.1347001,21.1088533 50.0970155,19.0584533 47.5929081,19.0584533 C45.0888006,19.0584533 43.051116,21.1088533 43.051116,23.6285867 L43.051116,23.6285867 L43.051116,42.6453867 C43.051116,42.65712 43.0423706,42.66592 43.03071,42.66592 L43.03071,42.66592 L37.4919393,42.66592 C37.4802787,42.66592 37.4715333,42.65712 37.4715333,42.6453867 L37.4715333,42.6453867 L37.4715333,23.6285867 C37.4715333,18.0141867 42.0104102,13.4440533 47.5929081,13.4440533 Z M165.276919,13.4440533 C165.28858,13.4440533 165.297325,13.4528533 165.297325,13.4645867 L165.297325,13.4645867 L165.297325,42.6453867 C165.297325,42.65712 165.28858,42.66592 165.276919,42.66592 L165.276919,42.66592 L159.738149,42.66592 C159.726488,42.66592 159.717743,42.65712 159.717743,42.6453867 L159.717743,42.6453867 L159.717743,13.4645867 C159.717743,13.4528533 159.726488,13.4440533 159.738149,13.4440533 L159.738149,13.4440533 Z M73.9863168,13.44376 C75.8082809,13.44376 77.6040086,13.7810933 79.3239427,14.44696 C81.0380465,15.10696 82.5889023,16.05736 83.9298679,17.27176 C86.795453,19.8648267 88.4221025,23.4376267 88.5066416,27.33016 C88.556199,29.5448267 88.1888911,30.83256 88.1830608,30.8472267 C88.1830608,30.8560267 88.1743154,30.8618933 88.1655699,30.8618933 L88.1655699,30.8618933 L65.6052821,30.8618933 L65.574081,30.868585 C65.5449751,30.88151 65.5236581,30.91176 65.5236581,30.94696 C65.5236581,30.9498933 65.5236581,30.95576 65.5265732,30.9616267 C66.7655088,34.6048267 70.164565,37.0512267 73.9863168,37.0512267 C75.3739246,37.0512267 76.7586173,36.7256267 77.9858923,36.1096267 C79.2015067,35.4994933 80.2771943,34.6018933 81.0992645,33.5136267 C81.1021796,33.5106933 81.1080099,33.50776 81.1138402,33.50776 L81.1138402,33.50776 L87.430954,33.50776 C87.4367843,33.50776 87.4426146,33.5106933 87.4484449,33.51656 C87.45136,33.5224267 87.45136,33.5282933 87.4484449,33.53416 C85.2183609,39.0810933 79.9332075,42.6656267 73.9863168,42.6656267 C65.9784203,42.6656267 59.465992,36.11256 59.465992,28.0546933 C59.465992,19.99976 65.9784203,13.44376 73.9863168,13.44376 Z M130.011275,13.4440533 C130.017105,13.4440533 130.02585,13.44992 130.028765,13.4557867 L130.028765,13.4557867 L139.450506,33.4669867 L139.450506,33.4669867 C139.465082,33.49632 139.494233,33.51392 139.5263,33.51392 C139.555451,33.51392 139.584603,33.4992533 139.599178,33.46992 C139.599178,33.46992 139.599178,33.4669867 139.602093,33.4669867 L139.602093,33.4669867 L149.020919,13.4557867 C149.023834,13.44992 149.032579,13.4440533 149.03841,13.4440533 L149.03841,13.4440533 L155.168954,13.4440533 C155.174785,13.4440533 155.18353,13.4469867 155.186445,13.4528533 C155.18936,13.45872 155.18936,13.46752 155.186445,13.4733867 L155.186445,13.4733867 L141.450294,42.6541867 C141.447379,42.6600533 141.438633,42.66592 141.432803,42.66592 L141.432803,42.66592 L137.616881,42.66592 C137.611051,42.66592 137.602306,42.6600533 137.59939,42.6541867 L137.59939,42.6541867 L123.863239,13.4733867 C123.860324,13.46752 123.860324,13.45872 123.863239,13.4528533 C123.869069,13.4469867 123.8749,13.4440533 123.88073,13.4440533 L123.88073,13.4440533 Z M9.46838286,0.000586666667 C9.48004343,0.000586666667 9.48878886,0.00938666667 9.48878886,0.02112 L9.48878886,0.02112 L9.48878886,16.3949867 C9.48878886,16.4389867 9.52377057,16.4712533 9.56458256,16.4712533 C9.58207342,16.4712533 9.59956427,16.4653867 9.61122484,16.4536533 C9.61413998,16.45072 9.61997027,16.4477867 9.62288541,16.4477867 C12.1765502,14.4824533 15.219959,13.4440533 18.4295309,13.4440533 C26.4374274,13.4440533 32.9498557,19.99712 32.9498557,28.0549867 C32.9498557,36.1128533 26.4374274,42.66592 18.4295309,42.66592 L18.4295309,42.66592 L0.0204059975,42.66592 C0.00874542752,42.66592 -2.23820962e-13,42.65712 -2.23820962e-13,42.6453867 L-2.23820962e-13,42.6453867 L-2.23820962e-13,37.0720533 C-2.23820962e-13,37.06032 0.00874542752,37.05152 0.0204059975,37.05152 L0.0204059975,37.05152 L18.4295309,37.05152 C23.3590369,37.05152 27.370273,33.0152533 27.370273,28.0549867 C27.370273,23.09472 23.3590369,19.0584533 18.4295309,19.0584533 C13.5000249,19.0584533 9.48878886,23.09472 9.48878886,28.0549867 L9.48878886,28.0549867 L9.48878886,34.44672 L3.9092061,34.44672 L3.9092061,0.02112 C3.9092061,0.00938666667 3.91795153,0.000586666667 3.9296121,0.000586666667 L3.9296121,0.000586666667 Z M200.81309,4.79616347e-13 C200.82475,4.79616347e-13 200.833496,0.0088 200.833496,0.0205333333 L200.833496,0.0205333333 L200.833496,34.4461333 L195.253913,34.4461333 L195.253913,28.0544 C195.253913,23.0941333 191.242677,19.0578667 186.313171,19.0578667 C181.383665,19.0578667 177.372429,23.0941333 177.372429,28.0544 C177.372429,33.0146667 181.383665,37.0509333 186.313171,37.0509333 L186.313171,37.0509333 L204.722296,37.0509333 C204.733956,37.0509333 204.742702,37.0597333 204.742702,37.0714667 L204.742702,37.0714667 L204.742702,42.6448 C204.742702,42.6565333 204.733956,42.6653333 204.722296,42.6653333 L204.722296,42.6653333 L186.313171,42.6653333 C178.305274,42.6653333 171.792846,36.1122667 171.792846,28.0544 C171.792846,19.9994667 178.305274,13.4434667 186.313171,13.4434667 C189.522743,13.4434667 192.566152,14.4818667 195.119816,16.4472 C195.122731,16.4501333 195.125647,16.4501333 195.128562,16.4530667 C195.143137,16.4648 195.160628,16.4706667 195.178119,16.4706667 C195.218931,16.4706667 195.253913,16.4384 195.253913,16.3973333 L195.253913,16.3973333 L195.253913,0.0205333333 C195.253913,0.0088 195.262658,4.79616347e-13 195.274319,4.79616347e-13 L195.274319,4.79616347e-13 Z M106.806157,19.05904 C101.876651,19.05904 97.8654151,23.0953067 97.8654151,28.0555733 C97.8654151,33.01584 101.876651,37.0521067 106.806157,37.0521067 L106.806157,37.0521067 L115.66236,37.0521067 C115.709002,37.0521067 115.746899,37.0139733 115.746899,36.96704 L115.746899,36.96704 L115.746899,28.0555733 C115.746899,23.0953067 111.735663,19.05904 106.806157,19.05904 Z M73.9863168,19.05816 C70.1674801,19.05816 66.7655088,21.50456 65.5265732,25.14776 C65.5265732,25.1506933 65.5236581,25.15656 65.5236581,25.1624267 C65.5236581,25.20936 65.5615549,25.2474933 65.6081972,25.2474933 L65.6081972,25.2474933 L82.3644363,25.2474933 C82.4110786,25.2474933 82.4489755,25.20936 82.4489755,25.1624267 C82.4489755,25.1594933 82.4460603,25.15656 82.4460603,25.1506933 C81.2071248,21.5074933 77.8080686,19.05816 73.9863168,19.05816 Z" id="Combined-Shape"></path>
            </g>
        </g>
    </g>
</svg>